<mxfile host="app.diagrams.net" modified="2024-03-18T23:03:44.214Z" agent="Mozilla/5.0 (Macintosh; Intel Mac OS X 10_15_7) AppleWebKit/537.36 (KHTML, like Gecko) Chrome/122.0.0.0 Safari/537.36" etag="_t6UyPgwVe6aHQsKq-Pi" version="24.0.6" type="github">
  <diagram id="9fnjXT7nlAm7Ix4f8WDv" name="Page-1">
    <mxGraphModel dx="1536" dy="1146" grid="0" gridSize="10" guides="1" tooltips="1" connect="1" arrows="1" fold="1" page="1" pageScale="1" pageWidth="800" pageHeight="250" background="#EFF1F3" math="0" shadow="0">
      <root>
        <mxCell id="0" />
        <mxCell id="1" parent="0" />
        <mxCell id="qtAHDF-vXk4XrOakRFS1-1" value="&lt;font color=&quot;#4d4d4d&quot; style=&quot;font-size: 23px;&quot;&gt;熔断器（&lt;/font&gt;&lt;font color=&quot;#f19c99&quot; style=&quot;font-size: 23px;&quot;&gt;Open&lt;/font&gt;&lt;font color=&quot;#4d4d4d&quot; style=&quot;font-size: 23px;&quot;&gt;）&lt;/font&gt;" style="text;html=1;strokeColor=none;fillColor=none;align=center;verticalAlign=middle;whiteSpace=wrap;rounded=0;" parent="1" vertex="1">
          <mxGeometry x="329" y="-212" width="184" height="30" as="geometry" />
        </mxCell>
        <mxCell id="qtAHDF-vXk4XrOakRFS1-4" value="&lt;font color=&quot;#4a909b&quot; style=&quot;font-size: 23px;&quot;&gt;A服务&lt;/font&gt;" style="text;html=1;strokeColor=none;fillColor=none;align=center;verticalAlign=middle;whiteSpace=wrap;rounded=0;" parent="1" vertex="1">
          <mxGeometry x="132" y="-67" width="146" height="30" as="geometry" />
        </mxCell>
        <mxCell id="qtAHDF-vXk4XrOakRFS1-5" value="&lt;font color=&quot;#4a909b&quot; style=&quot;font-size: 19px;&quot;&gt;公众号：小白debug&lt;/font&gt;" style="text;html=1;strokeColor=none;fillColor=none;align=center;verticalAlign=middle;whiteSpace=wrap;rounded=0;fontSize=16;textOpacity=60;" parent="1" vertex="1">
          <mxGeometry x="259" y="-76" width="282" height="30" as="geometry" />
        </mxCell>
        <mxCell id="AIzsohapeRoaQ22Scuxk-1" value="" style="shape=image;verticalLabelPosition=bottom;labelBackgroundColor=default;verticalAlign=top;aspect=fixed;imageAspect=0;image=data:image/svg+xml,PHN2ZyB4bWxuczp4bGluaz0iaHR0cDovL3d3dy53My5vcmcvMTk5OS94bGluayIgeG1sbnM9Imh0dHA6Ly93d3cudzMub3JnLzIwMDAvc3ZnIiBoZWlnaHQ9IjIwNDgiIHdpZHRoPSIyMDQ4IiB2ZXJzaW9uPSIxLjEiIHZpZXdCb3g9IjAgMCAxMDI0IDEwMjQiIGNsYXNzPSJpY29uIj48cGF0aCBmaWxsPSIjNDE2OTk2IiBkPSJNMCA3Mjh2MTM2YzAgMzUuMyAyOC43IDY0IDY0IDY0aDg5NmMzNS4zIDAgNjQtMjguNyA2NC02NFY3MjhjMC00LjQtMy42LTgtOC04SDhjLTQuNCAwLTggMy42LTggOHogbTc3NCA5NmMwIDQuNC0zLjYgOC04IDhINDI0Yy00LjQgMC04LTMuNi04LTh2LTQ4YzAtNC40IDMuNi04IDgtOGgzNDJjNC40IDAgOCAzLjYgOCA4djQ4eiBtMTIyIDBjMCA0LjQtMy42IDgtOCA4aC00OGMtNC40IDAtOC0zLjYtOC04di00OGMwLTQuNCAzLjYtOCA4LThoNDhjNC40IDAgOCAzLjYgOCA4djQ4ek0wIDUzNnYxNDRjMCA0LjQgMy42IDggOCA4aDEwMDhjNC40IDAgOC0zLjYgOC04VjUzNmMwLTQuNC0zLjYtOC04LThIOGMtNC40IDAtOCAzLjYtOCA4eiBtNzc0IDk2YzAgNC40LTMuNiA4LTggOEg0MjRjLTQuNCAwLTgtMy42LTgtOHYtNDhjMC00LjQgMy42LTggOC04aDM0MmM0LjQgMCA4IDMuNiA4IDh2NDh6IG0xMjIgMGMwIDQuNC0zLjYgOC04IDhoLTQ4Yy00LjQgMC04LTMuNi04LTh2LTQ4YzAtNC40IDMuNi04IDgtOGg0OGM0LjQgMCA4IDMuNiA4IDh2NDh6TTAgMzQ0djE0NGMwIDQuNCAzLjYgOCA4IDhoMTAwOGM0LjQgMCA4LTMuNiA4LThWMzQ0YzAtNC40LTMuNi04LTgtOEg4Yy00LjQgMC04IDMuNi04IDh6IG03NzQgOTZjMCA0LjQtMy42IDgtOCA4SDQyNGMtNC40IDAtOC0zLjYtOC04di00OGMwLTQuNCAzLjYtOCA4LThoMzQyYzQuNCAwIDggMy42IDggOHY0OHogbTEyMiAwYzAgNC40LTMuNiA4LTggOGgtNDhjLTQuNCAwLTgtMy42LTgtOHYtNDhjMC00LjQgMy42LTggOC04aDQ4YzQuNCAwIDggMy42IDggOHY0OHpNOTYwIDk2SDY0Yy0zNS4zIDAtNjQgMjguNy02NCA2NHYxMzZjMCA0LjQgMy42IDggOCA4aDEwMDhjNC40IDAgOC0zLjYgOC04VjE2MGMwLTM1LjMtMjguNy02NC02NC02NHpNNzc0IDI0OGMwIDQuNC0zLjYgOC04IDhINDI0Yy00LjQgMC04LTMuNi04LTh2LTQ4YzAtNC40IDMuNi04IDgtOGgzNDJjNC40IDAgOCAzLjYgOCA4djQ4eiBtMTIyIDBjMCA0LjQtMy42IDgtOCA4aC00OGMtNC40IDAtOC0zLjYtOC04di00OGMwLTQuNCAzLjYtOCA4LThoNDhjNC40IDAgOCAzLjYgOCA4djQ4eiIvPjwvc3ZnPg==;" parent="1" vertex="1">
          <mxGeometry x="531" y="-191" width="130" height="130" as="geometry" />
        </mxCell>
        <mxCell id="AIzsohapeRoaQ22Scuxk-2" value="" style="shape=image;verticalLabelPosition=bottom;labelBackgroundColor=default;verticalAlign=top;aspect=fixed;imageAspect=0;image=data:image/svg+xml,PHN2ZyB4bWxuczp4bGluaz0iaHR0cDovL3d3dy53My5vcmcvMTk5OS94bGluayIgeG1sbnM9Imh0dHA6Ly93d3cudzMub3JnLzIwMDAvc3ZnIiBoZWlnaHQ9IjIwNDgiIHdpZHRoPSIyMDQ4IiB2ZXJzaW9uPSIxLjEiIHZpZXdCb3g9IjAgMCAxMDI0IDEwMjQiIGNsYXNzPSJpY29uIj48cGF0aCBmaWxsPSIjMjk5MzlkIiBkPSJNMCA3Mjh2MTM2YzAgMzUuMyAyOC43IDY0IDY0IDY0aDg5NmMzNS4zIDAgNjQtMjguNyA2NC02NFY3MjhjMC00LjQtMy42LTgtOC04SDhjLTQuNCAwLTggMy42LTggOHogbTc3NCA5NmMwIDQuNC0zLjYgOC04IDhINDI0Yy00LjQgMC04LTMuNi04LTh2LTQ4YzAtNC40IDMuNi04IDgtOGgzNDJjNC40IDAgOCAzLjYgOCA4djQ4eiBtMTIyIDBjMCA0LjQtMy42IDgtOCA4aC00OGMtNC40IDAtOC0zLjYtOC04di00OGMwLTQuNCAzLjYtOCA4LThoNDhjNC40IDAgOCAzLjYgOCA4djQ4ek0wIDUzNnYxNDRjMCA0LjQgMy42IDggOCA4aDEwMDhjNC40IDAgOC0zLjYgOC04VjUzNmMwLTQuNC0zLjYtOC04LThIOGMtNC40IDAtOCAzLjYtOCA4eiBtNzc0IDk2YzAgNC40LTMuNiA4LTggOEg0MjRjLTQuNCAwLTgtMy42LTgtOHYtNDhjMC00LjQgMy42LTggOC04aDM0MmM0LjQgMCA4IDMuNiA4IDh2NDh6IG0xMjIgMGMwIDQuNC0zLjYgOC04IDhoLTQ4Yy00LjQgMC04LTMuNi04LTh2LTQ4YzAtNC40IDMuNi04IDgtOGg0OGM0LjQgMCA4IDMuNiA4IDh2NDh6TTAgMzQ0djE0NGMwIDQuNCAzLjYgOCA4IDhoMTAwOGM0LjQgMCA4LTMuNiA4LThWMzQ0YzAtNC40LTMuNi04LTgtOEg4Yy00LjQgMC04IDMuNi04IDh6IG03NzQgOTZjMCA0LjQtMy42IDgtOCA4SDQyNGMtNC40IDAtOC0zLjYtOC04di00OGMwLTQuNCAzLjYtOCA4LThoMzQyYzQuNCAwIDggMy42IDggOHY0OHogbTEyMiAwYzAgNC40LTMuNiA4LTggOGgtNDhjLTQuNCAwLTgtMy42LTgtOHYtNDhjMC00LjQgMy42LTggOC04aDQ4YzQuNCAwIDggMy42IDggOHY0OHpNOTYwIDk2SDY0Yy0zNS4zIDAtNjQgMjguNy02NCA2NHYxMzZjMCA0LjQgMy42IDggOCA4aDEwMDhjNC40IDAgOC0zLjYgOC04VjE2MGMwLTM1LjMtMjguNy02NC02NC02NHpNNzc0IDI0OGMwIDQuNC0zLjYgOC04IDhINDI0Yy00LjQgMC04LTMuNi04LTh2LTQ4YzAtNC40IDMuNi04IDgtOGgzNDJjNC40IDAgOCAzLjYgOCA4djQ4eiBtMTIyIDBjMCA0LjQtMy42IDgtOCA4aC00OGMtNC40IDAtOC0zLjYtOC04di00OGMwLTQuNCAzLjYtOCA4LThoNDhjNC40IDAgOCAzLjYgOCA4djQ4eiIvPjwvc3ZnPg==;" parent="1" vertex="1">
          <mxGeometry x="143" y="-192" width="131" height="131" as="geometry" />
        </mxCell>
        <mxCell id="qtAHDF-vXk4XrOakRFS1-6" value="" style="shape=image;verticalLabelPosition=bottom;labelBackgroundColor=default;verticalAlign=top;aspect=fixed;imageAspect=0;image=data:image/png,iVBORw0KGgoAAAANSUhEUgAAAgAAAAIACAYAAAD0eNT6AAAABHNCSVQICAgIfAhkiAAAAAlwSFlzAAAOxAAADsQBlSsOGwAAABl0RVh0U29mdHdhcmUAd3d3Lmlua3NjYXBlLm9yZ5vuPBoAACAASURBVHic7d13nFT1vf/x9+zO9gbssrssTViWjghIky4oYgFb0IvRmKixxoYSr2CJcH+JJjExmqi5iV0saATFICgiARQUJfRiQQV2Yam7uL3M749xDXC3zJwp58x8X8/H4zx8PNzz/Z7Pnh3m+z7teyQAAAAAAAAAAAAAAAAAAAAAAAAAAAAAAAAAAAAAAAAAAAAAAAAAAAAAAAAAAAAAAAAAAAAAAAAAAAAAAAAAAAAAAAAAAAAAAAAAAAAAAAAAAAAAAAAAAAAAAAAAAAAAAAAAAAAAAAAAAAAAAAAAAAAAAAAAAAAAAAAAAAAAAAAAAAAAAAAAAAAAAAAAAAAAAAAAAAAAAAAAAAAAAAAAAAAAAAAAAAAAAAAAAAAAAAAAAAAAAAAAAAAAAAAAAAAAAAAAAAAAAAAAAAAAAAAAAAAAZnHZXYAPbpA01u4imuGRdETSUUnfSSqTdEDSV5K2Siq2rzQ04wJJ/xWCfuskzZT372+H1pJ+Lyk1BH0vl/TnEPTrq6skTQxBv5WSpkvaH4K+ERi3pK6SekrqIClNUitJKfJ+xkPxOQ8Wj6RfSdpidyGR6k55d2IkL4clrZb0d0lXSOoY1D0EKy6SVK3Q/c2/lfdLK9xaS/rEQr3+LL8M229zvBsl1ftYo5Vlo6S2Yftt0Bi3pKGS7pL0hrwHUKH8dxqOZa+k3sHcSaa4Q/b/8UK17JD0pLxHoQnB2mHwSagH/4Yl3CEgHIN/wxLuEBDqwb9hIQSEXwdJt0p6S1KJ7P9uDsVCCPDT7bL/jxau5bCk5yRNUGRckolkFyq8RxTfSsoPw++VIWlNGH8vj7yXOcLhGoVn8G9YtkrKDctvZq4kST+Sd9Cvkf3fweFY9knqG4ydF+2i+ci/pWWHpJvl/QeC4ArXkf+JS6jPBITzyP/EJdRnAsJ15H/iwpmA0Ogu6W/y3i9l93etHQtnAlpg0pF/c0uxpPvlvdkFgQv3kf+JS6jOBNhx5H/iEqozAeE+8j9x4UxA8PSV9yynKUf7zS2cCWjCdNn/x3HaclDS3eI+gUDYPfg3LME+E9BK9h35n7jMCOLvJXmf/LFz8G9YOBMQmO6S5ssZf0snLXsl9Qpgv0alXbL/D+PU5QtJk6zvWqMtlf1/v4blziD+Xuc64PdpWAqD+HtJ0nYH/E4NSygeFY12SfKewayU/X8/py4PWN25wRRjdwHwSb6kf8p700wnm2sBgKacK2mzpPvEmUvHIwBElnPlPS15id2FAMAxEiU9Iu9BSheba4GPCACRJ13Sy/LOI0DCBmC3nvLejHqz3YXAPwSAyPVzSatkz4xzACBJP5G0VtLJdhcC/xEAItsgee8EP83uQgAYxSXvjX7PyDsvPyKQ2+4CAjF06CDl5tr9qK5HZWXlqqysVGVllUpKSlVYWKSysvJwFdBG0mJJF3//XwSoT5+e6tat+cf2P/xwjfbvPxCmioIjISFBZ501odl1iouL9dFHn4SpouAZNOgUdejQvtl13n9/uY4e/S5MFUW1WHkvQV4Vrg26XC5lZWUqOztL6elpSkhIUEJCghITE8NVQpM+/nitior22V2GJREdAEaPHqHBgwfaXUajSkpKtWdPoT7//Ett2rRV27btUFVVdag2lyrpTUk/lTQ3VBsxxSmn9NOUKec0u85XX30dcQEgMTFBl132o2bXWbduQ0QGgNNOG6pRo4Y3u87atZ8RAAKXJOklSVNCuZGsrEz17dtLffv2VqdOHZSXl6v4+PhQbtKywsIiAgCOl5GRroyMdPXu3VNTppyj2tpabdv2uVas+FCrV69VRUVFsDcZL+l5SXGSng125wCMFy/vgUbzp5Esat8+T2PGjNDw4YOVk5Mdik3gBASAMHG73d8n2l762c8u18cff6p//nOJvvxyZzA3EyPvXNsHJL0dzI4BGC1G3gOMoA7+brdbY8aM0PjxY9StG/czhxsBwAYJCfEaNWq4Ro0arm3bdmjBgn/q00//Hazu3ZLmSTpT0spgdQrAaA9LmhqszuLi3BozZqQuumiyMjPbBKtb+IkAYLOePburZ8/uWrdug5566gXt21ccjG6TJC2QNFLel5oAgFWzJN0SrM5GjBimK664VK1b864zuxEAHGLAgJP18MP/o/nz39b8+W+rpqYm0C7bSHpd0mBJZQEXCMBEkyT9Khgd5eXl6qqrrlC/frwR1ymYB8BB4uLi9KMfna8HH/yVOnZs/pEmH/WS954AAPBXe3lf4xvwODF69Gl68MEHGPwdhgDgQB065GnOnHs0cuSwYHR3qbyPBwKAr2LlHfyzAukkMTFRv/jFtbrppp8rIcGZj/GZLKIvAbz55iKtXPmRzVW4lJKSrMTERKWlpSovL1d5ee2Ul5er2NhYy70mJSXq5puvU+fOHTV37mvyeDyBFPmYpNXifgAAvrlf0umBdNCmTWvNnDldHTt2CLiYsrIy7d5dpMLCIu3bV6zy8gpVVVWpsrIy4L4D9cUXX9ldgmURHQC2b//c7hKalJiYqF69uqtv314aNmyw2ra1FqSnTDlHGRkZevLJp1VXV2e1nGRJj0saJ++7qAGgKX0l/TKQDvLycjVz5p1q2zbTUnuPx6NNm7bqs8/+rU2bturbb3cHehCERkR0AHCyyspKrVu3QevWbdALL7yqXr166PTTR2vEiKF+nxkYO3akUlNT9PvfPxZICBgj6cfyPssLAI1xSfqzvBOKWdK5c0fde+8MpaWl+d324MFDWrx4qVas+EgHDx6yWgJ8RAAIA4/Hoy1btmnLlm165ZXXNXny2Ro/fozcbt93/6mnDtANN1ytxx77ayBJ+Lfyvq/7iNUOAES1yyWNtto4J6etZs68w+/Bv7h4v954Y6GWL1+l2tpaq5uHnwgAYbZ//0H9/e/P6513lurqqy9Xnz69fG47atRwlZaW6tlnX7K6+RxJsyX9wmoHAKJWK3kPEizJyEjXrFl3qlWrDJ/b1NTUasGCt/XGGwuD8egz/MRTADbZs6dQDzzwkJ588mm/XhJ0zjkTdcYZ4wLZ9LWSOgfSAYCodIskS5Pwu91uzZhxi19z+O/c+Y3uvHOWXn31DQZ/mxAAbOTxeLR06XLdffcD2rOn0Od2V145TSed1MnqZuMkzbDaGEBUSpN0s9XG06ZdrIKC5l+hfawlS97XrFlzVFi41+omEQROCgC3STLy4s+uXbs1a9Ycbd263af14+LidPvtNyopKcnqJq+SlGe1MYCoc728s4f6beDA/jrnnIk+revxePT886/ob397zuSj/h2SnrC7CMlZAeA1ee9SNzIElJWVa86c32nt2nU+rZ+bm6Np0y62urkESbdbbQwgqiTJewDmt5SUFN1ww9VyuVwtrltXV6dHH31Sb721yMqmosV2eR/H9v2Ubwg5KQBI0isyOATU1NToD3/4szZt8m2+njPOGKf8/C5WN3etpFSrjQFEjcsk5VppOG3axUpPb/mOf4/Ho7/+9RmtXLnaymaixXZ5J1dyxOAvOS8ASMaHgFr99rd/0tdff9viujExMbr66it8St+NSJV0oZWGAKLKFVYadevWVRMmjPVp3Zdffl3Llq2wsplo4bjBX3JmAJAMDwEVFRX6/e8fVXl5RYvr5ud30ciRw61uytI/fABRo6u8rw332+WXX+rTwceaNZ/qjTcWWtlEtHDUaf9jOTUASIaHgH379uvxx//u07oXXHCu1bMA4yQFPlE3gEh1ubyz//mlV68e6tWre4vrFRfv1xNP+PY9FqUaBv8iuwtpjNMnAnpF3nfZW0qoYdRa3ldn9pF0UrA6XbNmrVatWqMRI4Y2u16HDnkaOvRUrV79ib+biJH3+t+DFksEELlc8gYAv1144bk+rffkk0+rrKzcyiaaUiNpg7wD6yF5xwen8kj6kxw6+EvODwCStPD7JVJ0lnSRpJ9L6hFoZ88995IGDjy5xUf+Jk+eZCUASNJ5IgAAJuolyfeH97/XuXNH9e/fr8X1Vq1arY0bt1ip60T1khZIekbSUjl70I8oTr4EEKm+kfSwvG/U+rkCvO5z+PARn66fdevWVR06WHq0f4h4GgAwkaXX/Y4d2/IJ2ZqaGj3//CtWuj/REkmD5L1h+U0x+AcVASB0aiX9r6TukuYG0tHixUv13Xctf+5Hjx5hpfs4SaOsNAQQ0fyeUzw2Ntanm46XLVuhQ4cOWyrqe2WSpkqaKOnfgXSEphEAQq9M3psZ75b3VJbfKioqtWjRuy2uN2rUcKs3A1o6EgAQsWIkjfW3Uf/+fZWRkd7sOnV1dXrzzYAm+9kl70HJvEA6QcsIAOHhkfRrBTD73tKly1t8DXBmZht16mTppv6xVhoBiFgny8LUvwMH9m9xnQ0bNqu4eL+VmiRpv6QxknybEhUBIQCE1yOS/mql4aFDh32aIbBv395Wuu8nKdZKQwARqeWRvBG+fL988MFKK11L3jv8p0raabUD+IcAEH6/kLTJSsOVKz9qcZ2+fXtZ6TpBvCIYMInfTyi1bt1KeXnNzxhcVVXl8/tMGvHfkj6w2hj+IwCEX7Wku6w09OWRmp49u1u9D6CnlUYAIpLfAaBXr5abbNu2w+pb/nZKesxKQ1hHALDH27KQdA8cOKi9e/c1u05KSrJatcqwUlPAcxYAiBh+B/727du1uI6vLzJrxCxJVVYbwxoCgH3+YKXRjh1ftrhOXl7L/1Ab0fK8ngCiQawsTADky/eKL99PjSiUd9ZXhBkBwD6LJJX426iwsOVZJX1J6o1oa6URgIiTLu99P35p6fq/5Nv3UyNelVRnpSECQwCwT42kf/nbaM+elv+BZWb6/XSP5P1SABD9LM38mZXV/PdKWVmZSkpKrXT9vpVGCBwBwF5+z3B15MiRFtdJSkq0UgvTAQNmSLPSqKX3kRw61PJ3UxN45t8mBAB7feVvg/LyihbXaekfahM4AwCYwe8A4Ha75XY3/+64yspKK7VUS9pjpSECRwCwl9/3AFRUtPyPzOIZAEtHBQAijt//1hMTW75lwGIAOCrvTKmwAQHAXtX+NqitrW1xnZaSehPirTQCEHH8/rfuy3dKTU3L302NNbPSCMFBAAAAwEAEAAAADEQAAADAQAQAAAAMRAAAAMBABAAAAAxEAAAAwEAEAAAADEQAAADAQAQAAAAMRAAAAMBABAAAAAxk6a0xgENcLOklBflz/OKL8/Tii/OC2WWDh75fbFFSUqqpU68MRdftZPMb3R599Ek9+uiToeh67vdLU7ZLOl1SYSg2DoQSZwAQqUIy+AN+6iHpfUl5dhcC+IsAgEjE4A8nIQQgIhEAEGkY/OFEhABEHAIAIgmDP5yMEICIQgBApGDwRyQgBCBiEAAQCUaLwR+Ro4ek9+wuAmgJAQCRoEAM/ogsvewuAGgJAQAAAAMRAAAAMBABAAAAAxEAAAAwEAEAAAADcWc1olK7drm65Zbr7C4DUaCoaK8eeeQJu8sAgo4AgKiUkBCvrl1PsrsMRIGYGE6UIjrxyQYAwEAEAAAADEQAAADAQAQAAAAMRAAAAMBABAAAAAxEAAAAwEAEAAAADEQAAADAQAQAAAAMRAAAAMBABAAAAAxEAAAAwEAuuwtoQZKkNyVNsLsQAAD84JF0k6S/2F1IU2LtLqAZDP4AgEjlknS2pP2SPrG5lkY5NQAw+AMAIp2jQ4ATAwCDPwAgWjg2BDgtADD4AwCijSNDgJMCAIM/ACBaOS4EOCkAvCHpLLuLAAAgRBpCwEZJW22uxVHzAJxidwEAAISYS1J/u4uQnBUAAABAmBAAAAAwEAEAAAADEQAAADAQAQAAAAO57S4gEL+flqMxPZPtLgMAYKjpc/dp+bZyu8uwJKIDQH52nAZ1SbS7DACAoVolO2k6Hf9wCQAAAAMRAAAAMBABAAAAAxEAAAAwEAEAAAADEQAAADAQAQAAAAMRAAAAMBABAAAAAxEAAAAwEAEAAAADEQAAADAQAQAAAAMRAAAAMBABAAAAAxEAAAAwEAEAAAADEQAAADAQAQAAAAMRAAAAMBABAAAAAxEAAAAwEAEAAAADEQAAADAQAQAAAAMRAAAAMBABAAAAAxEAAAAwEAEAAAADEQAAADAQAQAAAAMRAAAAMBABAAAAAxEAAAAwEAEAAAADEQAAADAQAQAAAAMRAAAAMBABAAAAAxEAAAAwkNvuAqJJVa1Ha76o0PJt5dq8p0rbi6q1v7RWZVUeHSmvs7s8AIgI8W6XUhJi1CYlVp2y3Oqem6BBJyVqXO9kdcuJt7u8qEEACJDHIy3dUqZnV5TojbVHVVZVb3dJABDRqms9qq6t0+GyOn1ZXK1lW8p/+Fn33Hj9eESGfjIqQ50y42ysMvIRACzyeKR5H5fqfxYc0IZdVXaXAwBG2LG3Wve+vl+z5x/QZael6+7JWSrI5ayAFQQACzbsqtINzxRp1Y4Ku0sBACPV1Hn0zIoSzf2oVHecnamZUzKVHM9tbf5gb/nB45EeWXxIg+/dyeAPAA5QXevR/3vzgAbO2snZWD8RAHxUWePRxX/arVtf2KfqWo/d5QAAjrG9qFrD7t+peR+X2l1KxCAA+KC0ol5nPfSt/rH2qN2lAACaUFHt0aWP7dHjSw/bXUpEIAC0oLrWe+S/fFt5yysDAGxV75FufHavnlp+xO5SHI8A0ILLnyjUu5vK7C4DAOAjj0e67um9em8z393NIQA0409LDunVNVxPAoBIU1Pn0WV/KVTh4Vq7S3EsAkATthVWa8ZLxXaXAQCwqLi0Vlf9rcjuMhyLANCEm57bqyru9geAiPbOhu/0+ifcwN0YAkAjFq77Tku5dgQAUWHGy/tUW8cB3YmYCbAR//PmgYD7SE1N0cCB/dWrVw+1bt1KGRnpcrlcQagOAKJbTU2NDh8+or17i/XZZ+u1Y8cXqq+3/p6Vr4prNPejUl0xMiOIVUY+AsAJVn9RodVfWJ/lLyUlRRdeeJ7OOmu84uJ4UQUABOL8889RUdFezZ37mtasWWu5nz++c4gAcAIuAZzguZUlltt26tRBDz54v8477ywGfwAIknbtcjV9+k26+ebrLH+3rvumUhuZKvg4BIBj1Huk1yxOI9mxYwfNnj1T2dltg1wVAECSRo4cpttvv9Hy5VSmCT4eAeAYG3dVav/ROr/bJSUlacaMW5SUlBSCqgAADQYNOkVTp15gqe37W7i5+1gEgGOs2G7t2v/kyZOUk8ORPwCEw+TJZ1s62/rxl5WqqOZpgAYEgGNs2eP/9aH4+Hidc86ZIagGANCYuDi3zjvvLL/b1dR59Pm+6hBUFJkIAMfYXuT/B+Pkk/soMTExBNUAAJoyZMggS/cC7CjiRsAGBIBjHDjq/5zRPXoUhKASAEBzWrdupezsLL/bWbnPK1oRAI5xtNL/iSbatGkdgkoAAC1p3dr/79/SCusTCkUbAsAxrMz9n5zMnf8AYIeUlGS/21TWcBNgAwIAAMAYHg8BoAEBAAAAAxEAAAAwEAEAAAADEQAAADAQAQAAAAMRAAAAMBABAAAAAxEAAAAwkNvuAuCblStX6+DBg3aXEVJpaWkaN26UpRd8tKS+vl7vvrtMlZWVQe/bSXJzczV06KCQ9F1VVaUlS95XfX10T6VaUJCv3r172l2GZfX19dq3r1iFhXtVUlL6w98rIyNdOTnZat++nWJjY22uEk5AAIgACxa8rRdfnGd3GWHxxRdf6ZprfhLUEFBfX6/HH/+7li9fFbQ+ncrlcunKK6dp0qQzgtpvVVW1fvObP2rz5q1B7deJ3G63br/9Rp166gC7S/FZTU2NPvnkM3344cfavHmbysrKmlw3ISFBPXsWaNiwwRo+fAjTmRuMAOBwJg3+kvTeex9IUtBCgEmDv+Sd5vSZZ+ZKUtBCgHfw/4MRg78k1dbW6uGH/xwRIaC6ulqLFr2rhQsXq6Sk1Kc2VVVVWr9+k9av36TnnntJZ555uqZMOUepqSkhrhZOwz0ADrZgwT+NGvwbvPfeB/rf/3024Dm7TRv8GzSEgEWL3g24L9MG/wYNIWDt2nV2l9KkjRs3a/r0mXrxxXk+D/4nqqio1IIF/9Stt96lFSs+CnKFcDoCgEN5B/9X7S7DNoGGAFMH/wbBCAGmDv4NnBoCPB6P5s2brzlzfqd9+/YHpc/S0qN69NEn9fjjf1dtbW1Q+oTzEQAcyPTBv4HVEGD64N8gkBBg+uDfwGkhwOPx6IknntK8efND8la7ZctW6De/+YOqqqqD3jechwDgMAz+x/M3BDD4H89KCGDwP56TQsBTT72gZctWhHQbGzZs1sMPP6a6urqQbgf2IwA4yN69+xj8G/Heex9ox44vfVp33boNDP4naAgBR48e9Wn9JUuWMvifoLa2Vo8//pStNSxZ8r4WL14alm2tW7dBc+ead/+RaQgADlJXF93PVweivt63o5Fof0bdKo/Ho/p6386i8DlsnJ2frT17ivTssy+FdZsLFy7W+vWbwrpNhBcBAAAc7qmnnldNTU1Yt+nxePTUU89zU2AUIwAAgINt2rRVGzdusWXbRUX79MEHK23ZNkKPAAAADrZw4Tu2bv+tt94JyRMHsB8BAAAc6siREtuvwxcV7fX5JlxEFqYCjgIDOicqJoKi3LqvK+Xj/WhhEe92qV/HBLvL8Fl1rUcbd1XZXcZx0pNiVJAbb3cZPiutqNfne53/rPu6dRsCehwvPSlGXbPjtetgjQ5+Z72fTz9dpx49ulluD2ciAESBFfd0VkpC5CSA1Ku3q6zKOXea52S4tfaBLnaX4bNdB2vU6dYv7C7jOEPzk7Tkl53sLsNn724q05kPfmt3GS3asmWbpXYFufF68qftNK538g//79/fVOr6Z/Zq9RcVfve3ebO1OuBskTNqAIBhvv12t99tstPdWj6z83GDvySd0jlRS/+7k6WzXbt37+E+gChEAAAAhyou9n+u/1smtla7Vo2f3E2Oj9G952f53WdFRaVKS32bSAqRgwAAAA7k8XhUUVHpd7uR3ZOb/fmoHs3/vCnl5f5fOoCzEQAAwIHq6uoszT7YKiW22Z+3buHnTamudv5Nk/APAQAAAAMRAAAAMBABAAAAAxEAAAAwEAEAAAADEQAAADAQAQAAAAMRAAAAMBABAAAAAxEAAAAwEK8DjgKjZn+jmAiKchXVznkVsCTtK6nVqffutLsMn1XXOu+tbGu+rIiofVha4azPIGAHAkAUWPeN/y8MwX9U13r06U72YSBKK+rZh0CEiaDjRgAAECwEAAAADEQAAADAQAQAAAAMRABwELfbLZfLZXcZjuR2+3a/qq/rmcblcinGx0dF4uLYh41hvyDaEAAcJCenra655ieEgBNMmXK2CgryfVr3lFP6adKkCSGuKLK4XC7dcMNVSktL9Wn9iRPH69RTB4S4qsiSkBCvW265zu4ygKAiADjMhAljCQHHmDLlbF122VSf13e5XLryyssIAd9rGPzHjBnpcxu3263bb7+REPC9hIR43XXXberTp5fdpQBBRQBwIEKAl7+DfwNCgJeVwb8BIcCLwR/RjADgUKaHgClTzrE0+Df4Twg4I4hVRY6YmBjLg38D00MAgz+iHQHAwUwNAd7B/0cB9+MNAdOMCwExMTG6/vrABv8GpoYABn+YgADgcKaFgGAN/g1MCwH/GfxHBK1P00IAgz9MwXMtEWDChLHKzGyjgwcP+bT+Rx99oo0bN/u1jYKCfI0bN8qWfhukpaVp6NBBfvXvi4YQ0L17vioqfJuvftGi97Rr126/tnPqqQM0cGB/W/ptkJOTrX79evvVvy/cbrduu+1GrVjxoerrfXuRzksvva6jR4/6tZ0JE8aqa9eTbOm3QdeuJ/m8LhDJCAARYsCAk31ed8+eIr8H6tzcHE2YMNaWfsPB5XJpxIhhPq//ySef+T1Q5+d3afF3DVW/4RAX59bpp4/2ef0FC972e6Du16+Phg8fbEu/gGkIAAAQJocPH9G//rXKp3V9PdNyoqf/dUS5GU1/tdfVW3ud9AcfrFCrVhk+rTtgQH916tTB0nYQPgQAAAiDI0dK9MADD2nPnsKQbueP7/h2qdBfb7+9xOd1589/W7Nm3an8/C4hqQXBwU2AABBiR46U6Fe/ejDkg79TlJWVa86c3+rLL3faXQqaQQAAgBAqKSk1avBvQAhwPgIAAISId/D/jXGDfwNvCPgdIcChCAAAEAINg//u3WYO/g3KysoIAQ5FAACAIGPwPx4hwJkIAAAQZC+//DqD/wnKysr07LMv2V0GjkEAAIAgs/oMf7RjvzgLAQAAAAMRAAAAMBABAAAAAxEAAAAwEO8CAAAHyE53q2Nm5HwlF5fWadfBGrvLQAAi59MGAFFs6tA0PXpFrt1l+Oyxdw/rF8/ttbsMBIBLAAAAGIgAAACAgQgAAAAYiAAAAICBCAAAABiIAAAAgIEIAAAAGIgAAACAgQgAAAAYiACA73mCtA4QWh4LH0OXK/h1AJGOABCF4uPj/W7z3XdlLa5z9Oh3FmqJ87uNE1jbhy3vH2v70P9anMBK3aWlpc3+3OPx6OjRo2GpBYh2BIAolJyc6HebHTu+UE1N0y/2qK+v15Yt2/3uNyUl2e82TpCcnOR3m02btjb78+++K9PXX3/rd78m7cPPPlvf7M83b96miopKv/uN1H0IhBIBIArl5GT73aasrFyvvjq/yZ8vXLhYBw4cDEstTmCl7m++2aVly1Y0+fMXXnhFtbW1YanFCazUvW7dBn388aeN/qyqqkrPPjs3bLUA0Y63AUahzp07Wmq3YMHbKi8v1/nnn6u2bTMlSYcOHdbChYv19tuLw1qL3azW/de/PqMDBw5q4sTxSk9PkyQVFu7VvHnztWrVar/7c7lc6tSpvaVa7GZ1H/7xj49r6tQLNHHi6UpKSpLH49H27Z/r6adf1Dff7PK7v4yMdLVqlWGpviJ2mwAADVNJREFUFiCaEQCiULt2uWrdupUOHz7id9t3312md99dptTUFMXExKi01P/rrQ0SExOVn9/Fcns79ezZXTExMaqvr/erXV1dnebNm6958+YrIyNdNTU1Ki+vsFxHp04dlJaWZrm9nXr37mmpXW1trebOnadXXvmHMjPbqKKiwtK9E4HWEW6vrjmqj76w/lkJt+LSOrtLQIAIAFFq8OCBWrLkfcvtfbkpsCUDB/ZXbGxswP3YISUlWb1792jxun5zSkqav6HNF4MHDwy4D7t07XqS2rbN0v79Byy1r6urU3Hx/oDrGDp0UMB9hENxaa2KS/2/RARYxT0AUWrMmBF2l+CIGgIxduwoW7fvcrk0evRpttYQCJfLpVGjhttaQ0pKigYNGmBrDYBTEQCiVEFBvnr16mHb9jt2bK9TTuln2/aDYcSIoT/cC2GHoUNPVW5ujm3bD4ZJk86w9RG8s84ar4QEHgEEGkMAiGLTpl0sl00zoFx22VTbth0ssbGxuvji823b9tSpF9iy7WDKyEjXpEln2LLt9PQ0nXvuRFu2DUQCAkAU69GjQKefPjrs2x06dJAGDuwf9u2GwtixI205kzJ58iR16JAX9u2GwkUXnae2bbPCvt3LL79EKSkpYd8uECkIAFHuJz/5L7Vv3y5s28vKytS11/4sbNsLNZfLpZtvvlZpaalh22ZBQX5UHP03SExM1K23Xh/WG0JHjBimMWNGhm17J3K7ub+6MewXZyEARLnExETddddtYXkOOikpSTNm3KLU1Og66srMbKO77rpNCQkJId9WdnZb3XHHLyL26YmmFBTk68YbrwnLZaFu3brquut+GvLtNGfatIsj9hHYUMnISNfVV19hdxk4BgHAADk52Zo58w61bt0qZNtITU3R3XdP10kndQrZNuxUUJCvO+64KaQhICenre65586Q/p3sNHLkMF199RWKiQnd105BQb7uvnt6WMJac1JSUjRr1h2EgO9lZKTrvvvuiprLWtGCAGCIzp07avbsmerSpXPQ+27fvp1mz56pHj26Bb1vJ+nfv5/uv/8uZWUF/8mAXr16aM6ce6J+ytozzhin6dNvCsnc/KedNlT33vtLx5yBIgR4Mfg7FwHAINnZbTVnzixNnjwpKKeYY2JiNHHieP361/epfXsz/nHn53fRQw89oNGjTwvK6ez4+HhdeulFuvfeGcrISA9Chc43ePBAPfjgr9SvX5+g9JeWlqrrrvuZbr31esc98md6CGDwdzbuyDBMXFycfvzjSzRu3Ci99tqb+uijj/2e7tblcmnw4IG6+OIpUXvKvzmpqSm66aaf64wzTtdrry3Q+vUb/e7D7XZrzJgRuvBCe+6Qt1t2tvdyxyeffKZ//OMtffnlTr/7SEpK0plnnq7JkyeF9SZNfzWEgDlzfmfp94xUDP7ORwAwVPv2ebrllut0+eWXaOXK1Vq3bv33rwRufCrS2NhYdevWVQMGnKxRo4YbOWidqEePbpo5c7oKC/dqxYoPtX79Jn311ddNBqqEhHj16FGgQYNO0YgRw354WZDJBg8eqMGDB+rLL3dq1ao1Wr9+k3bv3iOPx9Po+ikpKerdu4eGDBmkIUMGKSnJ/1df28G0EMDgHxkIAIZr06a1Jk+epMmTJ6murk579xZr//4DP7xzPTExQVlZbZSbm6u4OD4ujcnLy9Ull1yoSy65UNXV1Soq2qeDBw+pqqpakpScnKTs7LbKzs6Kurv7gyU/v8sPp8nLyytUVLRXhw8f+SGQpqenKTs7S1lZmRE7wVRKivdG2TVr1tpdSsj169c76u9niQZ8o+MHsbGxat++XVjnDYg28fHx6ty5Y8S+BtkJkpOTovaaeVpaqiZMGGt3GYAkbgIEAMBIBAAAAAxEAAAAwEAEAAAADEQAAADAQAQAAAAMRAAAAMBABAAAAAxEAAAAwEAEAAAADEQAAADAQLwLIAosXrxUdXV1dpfhs4kTxzvqpTiVlZV6//1/2V2Gz5KSkjRu3Ci7yzjOwYOHIuolN1lZmRoyZJDdZRznm292afPmrXaX4bPOnTupT5+edpeBABAAosALL7zyw5vnIsH48WMcFQDKysr1zDNz7S7DZ5mZbRwXAPbsKYqofdivXx/HBYCtW7dH1D6cOHE8ASDCcQkAAAADEQAAADAQAQAAAAMRAAAAMBABAAAAAxEAAAAwEAEAAAADEQAAADAQAQAAAAMRAAAAMBABAAAAA/EugCjQvXs3VVdHzrsAYmKclTvdbrd69Ohmdxk+y8jIsLuE/yMlJTmi9mGnTu3tLuH/aN26VUTtw9zcbLtLQIAIAFHgnntm2F1CRMvISNfs2bPsLiOi5ed3YR8GaOjQUzV06Kl2lwGDOOtQDAAAhAUBAAAAAxEAAAAwEAEAAAADEQAAADAQAQAAAAMRAAAAMBABAAAAAxEAAAAwEAHgGO4Yl99tampqQlAJAKAlVr5/42L9/56PVgSAY6Qk+L87Dh8+EoJKAAAtOXTosN9t0pIY9hqwJ47RKtn/3bF7d2EIKgEANKeqqlrFxQf8btcqOTYE1UQmAsAxumbH+91m7dp18ng8IagGANCUDRs2WXoLarcc/7/noxUB4Bg98/z/YBw+fERr164LQTUAgKYsWbLMUrse7QgADQgAxxjWLclSu7lz56m2tjbI1QAAGrN+/SatX7/R73YFufHKTOUSQAMCwDFOK0hSgtv/O0T37CnSk08+E/yCAADHOXz4iP7yl79Zaju+d0qQq4lsBIBjJMfHaEJfax+Q5ctX6vnnX1Z9fX2QqwIASNK+ffs1e/ZDlp++Om9gapArimwEgBNcPiLDctu33npHv/71H1RUtC+IFQGA2Twej1atWq27737A8pNXORlunWnxAC9aue0uwGmmDEpTboZbe0usXdNfv36jbr/9bo0cOUxDhgxS7949lZKSHOQqASC61dfXq7h4vz77bL2WL1+lnTu/Cai/n43OkJtJgI5DADhBYpxL089uoztfKrbcR11dnZYvX6Xly1dJkhIS4pWRkSEXnz0AaFFNTa2OHCkJ2iXVlIQY3TYpMyh9RRMCQCOuH99ajyw+pN2HgnNnv3fCiv1B6QsA4J9bz2qjtmnc/X8i7gFoREpCjB6+LMfuMgAAAeqUGaf/Po+j/8YQAJrwoyHpunhIut1lAAAsinFJT13TztJ7XkzAXmnG365qp3wL0wMDAOw36/wsje/Dnf9NIQA0IyM5Ru/M6KicDG6VAIBIcumwdN13QVu7y3A0AkALuuXE683bOvAGKQCIEJP6p+rZa/MUw5NXzSIA+GBIfpJW3ttZHdpwJgAAnOyy0zK04LYOircwrbtpCAA+6tM+QWsf6KIJXE8CAMdxx7p03wVZeu66PMUx4Y9PCAB+yMlwa9GdHTX74rZKiucDBgBO0LdDgv41q7Puv7Atp/39QADwkzvWpVlTsrTp1/maOjSdDxsA2CQ73a2HL8vRZ3O6aLjF17mbjIvaFnXNjtMrN7XXtsK2+uPiQ3p1TakOl9XZXRYARL3+nRJ11ZgMXTW2lZLjOY61igAQoJ558Xrip7l65PIcLdlYpvc2lemDrWXaVlSt6lqP3eUBQMTLTI3VqV0SdXqfFJ3dP1V9OyTYXVJUIAAESYLbpfMGpOq8Ad73TdfVS18fqFZxaZ2OVtSrpIKzAwDgi7hYl9ISY9QmNVadMuOUmcpj2KFAAAiR2BgpPzte+dl2VwIAwP/FxRMAAAxEAAAAwEAEAAAADEQAAADAQAQAAAAMRAAAAMBABAAAAAxEAAAAwEAEAAAADEQAAADAQAQAAAAMRAAAAMBABAAAAAxEAAAAwEAEAAAADEQAAADAQAQAAAAMRAAAAMBABAAAAAxEAAAAwEAEAAAADEQAAADAQAQAAAAMRAAAAMBABAAAAAxEAAAAwEAEAAAADEQAAADAQAQAAAAMRAAAAMBABAAAAAxEAAAAwEAEAAAADEQAAADAQAQAAAAMRAAAAMBABAAAAAxEAAAAwEAEAAAADEQAAADAQC67CzjGLkkd/GmQm+FWcoKTfgUAgEn2HqlTeXW9v80ekHRfCMrxi9vuAgKxt6TW7hIAAIhIXAIAAMBABAAAAAxEAAAAwEAEAAAADOSkAFBudwEAAISBI8Y7JwWAqZIO2F0EAAAhtEjSI3YXITlrHgBJ6i/pPUlZdhcCAECQLZJ0oaRKuwuRnBcAJEIAACD6OGrwl5wZACRCAAAgejhu8JecGwAkQgAAIPItknSBpCq7CzmRkwOARAgAAEQuxw7+kvMDgCR1lzcIAAAQKeolvSWp2u5CAAAAAAAAAAAAAAAAAAAAAAAAAAAAAAAAAAAAAAAAAAAAAAAAAAAAAAAAAAAAAAAAAAAAAAAAAAAAAAAAAAAAAAAAAAAAAAAAAAAAAAAAAAAAAAAAAAAAAAAAAAAAAAAAAAAAAAAAAAAAAAAAAAAAAAAAAAAAAAAAAAAAAAAAAAAAAAAAAAAAAAAAAAAAAAAAAAAAAAAAAAAAAAAAAAAAAAAAAAAAAAAAAAAAAAAAAAAAAMDJ/j8zvN5tcCb7bgAAAABJRU5ErkJggg==;" parent="1" vertex="1">
          <mxGeometry x="365" y="-172" width="92" height="92" as="geometry" />
        </mxCell>
        <mxCell id="AIzsohapeRoaQ22Scuxk-4" value="&lt;font color=&quot;#416997&quot; style=&quot;font-size: 23px;&quot;&gt;B服务&lt;/font&gt;" style="text;html=1;strokeColor=none;fillColor=none;align=center;verticalAlign=middle;whiteSpace=wrap;rounded=0;" parent="1" vertex="1">
          <mxGeometry x="523" y="-67" width="146" height="30" as="geometry" />
        </mxCell>
        <mxCell id="G6cqeU4yG_EHuJjogdAW-2" value="" style="endArrow=classicThin;html=1;rounded=0;strokeWidth=5;strokeColor=#FFA32A;dashed=1;endFill=1;" edge="1" parent="1">
          <mxGeometry width="50" height="50" relative="1" as="geometry">
            <mxPoint x="278" y="-101" as="sourcePoint" />
            <mxPoint x="361" y="-101" as="targetPoint" />
          </mxGeometry>
        </mxCell>
        <mxCell id="G6cqeU4yG_EHuJjogdAW-3" value="" style="endArrow=classicThin;html=1;rounded=0;strokeWidth=5;strokeColor=#FFA32A;dashed=1;endFill=1;" edge="1" parent="1">
          <mxGeometry width="50" height="50" relative="1" as="geometry">
            <mxPoint x="278" y="-125.67000000000002" as="sourcePoint" />
            <mxPoint x="361" y="-125.67000000000002" as="targetPoint" />
          </mxGeometry>
        </mxCell>
        <mxCell id="G6cqeU4yG_EHuJjogdAW-4" value="" style="endArrow=classicThin;html=1;rounded=0;strokeWidth=5;strokeColor=#FFA32A;dashed=1;endFill=1;" edge="1" parent="1">
          <mxGeometry width="50" height="50" relative="1" as="geometry">
            <mxPoint x="278" y="-151" as="sourcePoint" />
            <mxPoint x="361" y="-151" as="targetPoint" />
          </mxGeometry>
        </mxCell>
        <mxCell id="G6cqeU4yG_EHuJjogdAW-5" value="" style="shape=image;verticalLabelPosition=bottom;labelBackgroundColor=default;verticalAlign=top;aspect=fixed;imageAspect=0;image=data:image/png,iVBORw0KGgoAAAANSUhEUgAAAgAAAAIACAYAAAD0eNT6AAAACXBIWXMAAGj8AABo/AHOofltAAAAGXRFWHRTb2Z0d2FyZQB3d3cuaW5rc2NhcGUub3Jnm+48GgAAIABJREFUeJzt3WdgHNW99/Hf7GpXq14syXLv3eBGtQ0YSEJLKCGGUEIg5bmBQAzhJgEnuZcLCSS5pNwkN+SmgKkBTAuGVBIM2HSMARcM7rJcJFmyetkyzwsQMcaypNmz2p2Z7+etPUfH8u78f3POmXMkAAAAAAAAAAAAAAAAAAAAAAAAAAAAAAAAAAAAAAAAAAAAAAAAAAAAAAAAAAAAAAAAAAAAAAAAAAAAAAAAAAAAAAAAAAAAAAAAAAAAAAAAAAAAAAAAAAAAAAAAAAAAAAAAAAAAAAAAAAAAAAAAAAAAAAAAAAAAAAAAAAAAAAAAAAAAAAAAAAAAAAAAAAAAAAAAAECfWOnugBdMW3hDeF99Z0HMsovsuF0QlJWV7j4BgJfEZcesoNWcZVuNxaXZzWuX3tCV7j65HQGgn4YuuKEsoc4FknWMpMmSJkkaLYmiDwADI2ZJW2xZGyR7g2VZL1h26Jmdy2+oS3fH3IQA0AdDjv/OFAUTn5NtnW7LPlz83gAgs9hK2JbeDNjWnywrcffO5be8ne4uZToKWQ+GH3tNTiwcuVSWdZmkI9PdHwBAP9h62bKsO7IVWrJ1+Q0d6e5OJiIAHKB8wQ35AXV90bL1TVkamu7+AACSUivpV51Z8Z82PPXDxnR3JpMQAP7FGnzi4sssWz+UVJbuzgAADLLtGlnWt3Yvv/lOSXa6u5MJCACSKk5efHgwpttsS3PT3RcAQEqtsBPBK/Y8e9Nb6e5IugXT3YF0qzxx8SVWQo/J0th09wUAkHIjLcv+Qt7o45pbtz73Uro7k06+HQEo+di3irKjwdtl6dPp7gsAIC0e6syKf8mvawN8GQDKjls8JBS0/mzLnpHuvgAA0sleG1T81OrlP9qR7p4MNN8FgMEfu26sFQv8TdK4dPcFAJARtgaswKk7n/7ehnR3ZCD5KgAMO/n6ifGYnpNlVaS7LwCADGLbNcEsHVf9j1veSXdXBopvAkDZx785NCuatVLvbdsLAMCBqgIJa97OZ79fle6ODIRAujswEEYvuKE4K5r1V1H8AQA9G5Gw7CdKT7uhMN0dGQi+CAAddtfvJU1Pdz8AABnO0uHhjq7fpbsbA8HzUwCDT1h8lWXp56bbtSxLUwqzNK88rJmlYY3LD2p4blA5WZZyg57/tQLAgGqL22qL2apui2tTS1yv7+3UitoubWiOy7ZTsLGfbV+x+5lbbjPfcObwdKWqOHnx4YG4XpaUbarNykhQF43J0cJRORqVxwnAAJBOW1piemh7h+7d0qo9HQmTTXfICh6x++mb1ppsNJN4OQBYQ05YvMLU9r7l2QFdOyVfF4zJVTjg5V8bALhPZ9zWH7a168frmlXXaSgI2Hp29zM3L5BHzw7w7FbAg09c/AVJVybbjmVZumRsrpbMLdXRZWEFLYo/AGSarIClmSUhXTQ6Vw1RW2/tiybfqKVR+WOO29yy9bk3km8s83iympXN+2ZBVihrs5I81a8wZOlnc4p12rCIoZ4BAAbCE9Uduva1RjVFkx4N2GOHu8bt+dutrSb6lUk8+RZAVjh4uZIs/oMjAT1ywiCKPwC40CeHRfT4gkEakpP0QPfgQDT730z0KdN4bgRg+LHX5MSyczdLdqXTNiojQf1xwSCNzPPsDAkA+MK21pjOWr432QWCuyIKj926/IYOU/3KBJ4bAYhn534+meJfGLL0h+NKKf4A4AGj8rJ07/xSFWQl9bw7pNOKXmKqT5nCcwHAlv3FZK7/6RHFmlzI630A4BXTikL68ZzipNqwbfsyQ93JGJ4KAEOO/84USUc4vf6Ssbk6fShz/gDgNZ8aHtFFY3KTaeKYYSdfP9FUfzKBpwKAgonPOb20PDugb0/3xfbPAOBL3zmsUIOynZe9eMK62GB30s5bAcC2Tnd66b9PLVBhyHNrIgEA7ysOWbpmcr7zBmydZq436eeZADDs5OsH2bZ9mJNrKyJBnT8qx3SXAAAZ5uIxuRoccVz6Zo2cf12Jyf6kk2cCQDwWOEmWs3/PJWNzlc0BPgDgedlBSxeMdrwWIBjLsk4w2Z908s5yd8s+2tFllqXPjEztwr+trXH9cUe7VtdHVdeZUFf84NtKh4OWyrIDmlUS0lkjIo4PG4ra0p+qO7R8T6d2tMbUFO15G+uScEAj84L6+JBsnVwZkdNjDt5uiumPVe1a1xhVXaetWOLgPzM7aKkiEtBRg8I6a0ROMkkcABxZOCpHP3u7xdG1CTtwrKTHzPYoPbwTAKTJTi6aUpiVslP9oglbN61p1pJNbYr2UBAP5i87O3Tr+hZ9YVyuvj29QKF+VOXna7v09dcata011q++3r2lTdOKQvr5kUWaWhTq83WtMVvXv96oh6o6+nUk55PVHfrB2mZdPTlfV03Kk8UZCwAGyNj8LE0ozNK7Tf27T0qSZdmTUtCltPDS45ej/5R5FWHT/ZAkxWzpkucb9Nt3W/tV/LtFE7b+791WXfpCg2J9vPwvOzv02RX1/S7+3dY2RnXm8r16rb5vh2i0xmx9+pm9Wrq93dF53O1xW7esbda1rzX2+1oASMb8cmenxNsOa00m8kYAmPP/QpJGO7l0ZklqAsCta5u1fE9n0u38c3enfrK+ude/V9UW15Wv7HMUNvbXGrP1pRca1NKH1HH9641608CJW3/Y1q57t7Ql3Q4A9NWs0r6PdB5gnBYu9MRWsZ4IAEMLhhbJ4XTG+ALz/481HXH9eqO5g6Nue6e11/Otf7quWa19HSroxe6OuH777qH7/3ZTTA9VmdsW+4drm9WVZHgBgL4al+/43h8auWucJzaN8UQAiCdiBU6vNXBS1Ef8dVenOntY6OdER9zWX3f2XGyjCVtPHuLPnXh0R/sh//yPVc6G/XtS25nQyprkR0wAoC+G5Tpf+9WVpSKDXUkbTwQAO5RwHADykzsg4qDWGBgWP9Daxp7n9avaEodc6e/Exub4IUPMofrj1JoUtAkAB5PMvd9OhBzXnEziiQBgxS3HL3Wm4i00U0Px+2uK9jwF0BpL6pjLg7Jt+5DrAFLxM/uy7gAATMhNZvA3kMgz1pE08kQAsO2E4yiXitfPKlKQKg71vnx5Cn5eOGCpJNxzuxUR81MnFUns0Q0A/ZHMvT+ZmpNJuOOmwLFl5t8smHeIV1YqI0GNzTe7l8Gx5eFDbgqUkn9jhbPXcgAA/UcASIEFlRGNzDP3hDw6L6jjBh+6OH5ubFLHXH60vV6OzTxzRI6KDjFC0F9HDgprcqGX9qUCgMxGAEiBkCV9f2aRkV9uQNLNMwvV20GFl43N1bRix++1fsjJlRGdPvTQgaM4ZOm7082sg4kELd080xNv1QCAaxAAUuRjldm6ZVaRknnJIMuSfji7SCdW9n5WQXbQ0l3HlmhiQXJP0UeVhfWro4r7ND920ZhcfX1KQVJzaTlBS7cdVazphsILAKBvCAApdMnYXD2yoExHDOr/fPmRpSE9esIgXdzLUPz+huYG9cRJZbp8Yp5y+nm6YVE4oOumF+ih4wepsLfhhv18Y2q+7p5b3O/he8uydGJlRH8+qUynDk3tYUwAgI9i0jXFjiwNadmCQdraGteq+i7VdSR63PEuHLBUHglqVmlIox2uISjIsvQfhxXqG1ML9GJt5/t7BPT8yl5JOKBR+Vk6uizc6zRDT06ujOjkyojebopp7b6oajsThzwNcPD7pwFWpmATJgBA3xAABsjovKBG5+UM2M/LCVp9mjowaXJhFgv5AMAlmAIAAMCHCAAAAPgQAQAAAB8iAAAA4EMEAAAAfMj3S7Z/uaEl3V0A4CGRrICGRAI6piysQSk84KopauuFuk5VtyXUloLTOQ8lNyugYbkBHVuW3a99Qw6muj2uV+q6VNuRUGcPrw9nBSyVhS1NLQ5pahGbhpni+wDw/TXN6e4CAA8KWpZOG5qt7xxWoFF55m61NR1x3bK2RQ9vb1e0h4I5UEIBSwtH5ui66QUq72fYWdsY1Y1vNunZmq5+XTepMEvfOaxQH6vk8LBkMQUAACkQt209Ud2hU/65Vy/V9a/I9WR9Y0yn/HOv7t/alvbiL0nRhK37trbplH/UaUNTrM/XPVndoU8+vbffxV+SNjTFdMnzDfrvdYzeJosAAAAp1NiV0KXP12t7azypdhq6Evrcynrtbk+unVTY1R7X51bWa1+091DyekNUV7y8Tx1x5wHGtm39ZH2z7tva5rgNEAAAIOX2RW19b01TUm38dH2LqjOw+HeraovrZ+t7n1L9zuqmHrdD768b32pWY9fArn/wEgIAAAyAJ3d0qLbTWbGKJmw9sC3zn3b/sLVdhxoEWLMvqlX1ZqZDpPdGVx6v7jDWnt8QAABgACQkvepwLcCaxpia+jC8nm5N0YTWNvT8b3zB0FqID7VZ22m8Tb/w/VsAADBQ9oTDUkVhv6+raXPPgreaSESqyD/on9VtMV+s98QtR7/T9+wy2he3IQAAwAApHFcmHTa439cVZO+T/lydgh6ZVzRlsDS++KB/llcdk1bVG/15heX50mHDHF69wWhf3IYpAAAYINOGH/zJuDeTh+YpGEhuw52BkBWwNGloz//G6SOc/fsPxenvFAQAABgQU4bladKQPEfXluaHdPzkUsM9Mu+EKYNUnNvzwPL8SSUqyze3k1/Aks6cU2GsPb8hAABAilmWpe+eMz6pNq47c4xCwcy9ZYeCAV1/1thD/p1wVkDfPPPQf6c/PnvsUE2sdBaqQAAAgJS79vTROnHqoKTaOHxkoW4+f6IsK/OmAgKW9IMLJvZpOP5z84fpgmOHJP0zZ40q1PfOn5h0O35GAACAFCnOzdJPPzdZ154xxkh7F88fqtv/7TBVFmXOPviVxdm6/SuH6cK5Q/t8zY8vnqzFZ41TTqj/JShgSRfOHaqHvz7b0fX4F9+/BXD4SKevjwDAR+WEAxpakq25E0p05pwKFeaYvc2eeniZjp9coidfr9Vzb9drR32HWh1uMORUXnZAw0sjOn5yic6YPbjfhdiyLF11yiidd8wQPf7aHr28qVF7mjrV2cNeB1kBS+UFYU0fma8z51Qw7G+I7wPAX687It1dAIB+yQ0HtfDoSi08ujLdXUnK4KKwvnzSCH35pBHp7oovMX4CAIAPEQAAAPAhAgAAAD5EAAAAwIcIAAAA+BABAAAAHyIAAADgQwQAAAB8iAAAAIAPEQAAAPAhAgAAAD5EAAAAwIcIAAAA+BABAAAAHyIAAADgQwQAAAB8iAAAAIAPEQAAAPAhAgAAAD5EAAAAwIcIAAAA+BABAAAAHyIAAADgQwQAAAB8iAAAAIAPEQAAAPAhAgAAAD5EAAAAwIcIAAAA+BABAAAAHyIAAADgQwQAAAB8KCvdHYB/ROO2qvZ2qKUjqqaOuNo747JtKRIOqignS5FwQKMGRRQJB9PdVcC4aDyhPY1damyLqSOaUGtnXJJUmBNUTjiowkhQg4siCvBYhgFCAEBKNHfE9fKmBr34bqPW7GjWlpp27ajvUDxhH/I6y7I0pDisMRW5mjo0X8dMKNZR44tVlh8aoJ4DydvXFtNL73/+11e3amttm6rrOxTr5fOfHQpobEWOxpTnatrwfM2dWKJZowqVHSIVwDwCAIzZ2dCpP762W4+/Vqu3qpp7LfYHY9u2djZ0amdDp1ZuaNBvn66SJE0akqdPzq7Q2XMGa3xlrumuA0nbUtumx16p0ZOv12r9zmY5+PirM5rQ+upWra9u1Z9W10raouxQQEeMLdKnZlXozDkVKskjDMMMAgCSEk/YeuL1Wt357A69tHGfo5teX2zY1aoNT27Rj5/cosNGFOhzxw3VeUcP4ckIadUVS2jpS7t1z4qdWr2tKSU/ozOa0MoNDVq5oUHfXfquTphSos8fP1wnTyuVZVkp+ZnwBwIAHOnoiuv+F3fr109t17a69gH92W9VNeub923Qfy/boi+eOFyXHj9MRbk8FWHgNLXHtOSZav1++Q7VNHUO2M+NxhN6as1ePbVmr6YMy9MVHxups44YrFCQIIz+IwCg3/72Zp2+s/RdVe0d2MJ/oNrmLv3g8c267akqXXvGaH3hhOEKBngiQuokEtLDr+zWjQ+/q7qWaFr7sr66VVfduV4//fNW3bhwgk6eVpbW/sB9CADos42727T4gQ16bkNDurvyIY1tUf3H0nf1wAu7dMv5E3XkuOJ0dwke9OrmRl3/wDtaU9Wc7q58yOaadl38v2/qtJnluvEzEzS8NJLuLsElGDdCnyx9abc+ccvLGVf897d2R4vO+snr+u6D7ygaT6S7O/CIeMLWrU9u0dk/WZVxxX9/f15dqxO/97IeeWVPursCl2AEAIfU3BHXN+97W4+96o6bim3b+t3yHVq1tVm3fWGaRpbxNATndjZ06qt3rNWLG/eluyt90tIR01fvWKun19XrhxdMVC57auAQGAFAj6r2tuvUH7zimuK/v1VbG/XJ/35Vb2XwExsy25vbm3TqD15xTfHf30Mv7dJZP141oAsU4T4EABzUhl2tOuvHr2tzTVu6u+JYbXOXzvnJKj29bm+6uwKXWfFOgz7zs9dV29yV7q44tqaqWZ+69TVXf4eRWgQAfMQrmxt15q2vade+jnR3JWmtnXF9/rY39fiqmnR3BS7x+KoaXfiL1WruiKe7K0nbXtehs3+8SmurGQnDRxEA8CEbdrXqkl+9oab2WLq7Ykw0buuK29fq4Zd3p7sryHDLVtXoq7evVTSeoh2t0qC2uUvn/3w1IwH4CAIAPrCroUMX/nK19rV5p/h3iydsLbprPSEAPVq2qkZX3L621/363Whvc1QX/vIN1gTgQwgAkPTe6uHzfrFaOxtSf4PIDlqqjAQ1Jj9LY/KzNDgSUHgANvDpDgFuXNSI1Hrs1T26fICKfzhgqSw7oFF5WRqVl6Wy7IBCA7B/1ba6dl1y25vqjPKKLN7Da4CQJH3rDxu0cbf5IcKApDmDwppXHtbRZWGNL8jS0JygDqz3CVva2R7Xu01RvbQ3qpW1XVq1t0umb1XxhK0rl6yTJJ19xGDDrcONHnt1j65css7R4VW9CUiaPSiseWVhHVUW1oTCLA07yOc/btuqbkvo3eaoXt4b1YqaLr3eEJVtm+3TG9uadeOjG/X98yYabRfuRACAHnxxl/HNQ4bnBnXZuDydMyKiITm9v4scsN67ZnhuUCdWvvfu/s62uB7d0a47Nraput3cgixCALqlqvgPywnq0nG5+vSIHA3N7f3zH7QsjcwLamReUCdXRqRpUnV7XI9sb9eSzW3a2Wbu83/78h2aP7FEp80sN9Ym3IkA4HPb6zq0+IF3jLU3LCeo66cX6KwROcpKclhzaG5QX52Yr/83Pk+P7ejQD9Y2G7sREgKQiuI/NDeo66YV6OzhEYWSnNYalhPUVZPy9ZUJeXq0ql0/WNuiXYaC8DX3vK3ZY4o0uChspD24E2sAfO4/H3pHrZ3J31SyLGnR5Hw9d0q5zh2ZfPHfXyhgaeHIHD33iXJ9bXK+goaOQO0OAawJ8B/TxT/LkhZNyteKT5Rr4cicpIv//kIBS+eNytWKU8p11SQzn//Gtqi+99gmA72DmxEAfOyZ9Xv1lzfrkm5naG5QDx0/SNdNK1BOMHWrmXKDlq6fVqDHF5RqZJ6ZLU67QwBvB/jHslU1uspg8f/g8z899Z//xdML9McFg4x8/h9+ebcrdzmEOQQAn4olbC1+4N2k2zm8OKS/nlSmo8sGbihxdmlYT5xYpsOKQ0ba4+0A/zC92v/w4pD+MsCf/zmlIS1bMCjpz79t2/qPpe8aX2gI9yAA+NTjr9UkvTHIsWVhPXzCIJVlD/zHqDw7oEdOGKR55WZuvEwHeJ/pYf955e99/svT8PmviAT1yAmDdGySweOtqmb9/S22yvYrAoBP3fbU9qSun1oU0pK5pco3OdnfT/lZlu6ZV6rjK8yGAKYDvMf0sP8xZWHdmQGf/zvnlWp6kiMBP//rVjMdgusQAHzo6XV7kzrXvDIS1P3HlapwIHYv6UUkaGnJ3FLNNzgSwHSAt5ge9p9fHtZ980uVl8bi363g/RBcEXG+JuC1LU16ZRNrAfyIAOBDd6/Y6fjagKSfH1mUlmHPnuQELd3NSAAOIhVP/kvmlqZ0sV9/DY4EdNtRxUm9HZDMPQHulTl3cQyIpvaY/rnW+Zzflybk6biKbIM9MoORABzIy0/+B5pbHtal43IdX/+XN2rV0eX+0w/RPwQAn3ni9RrHe4GXZwd07ZR8wz0yh5EAdPPDk/+BvjWtwPFUQHNHXH9fw2JAvyEA+MyfXnf+3v81U/JVGMrsjwwjAfDTk//+CrIsXTkpz/H1T75eY7A3cIPMvpvDqHjC1subGhxdW5Yd0AWjnQ8xDiRGAvzLj0/++7t4TK5KHa7PWbmhgT0BfIYA4CNrqlrU3OFsnu/CMbmKuOQmKDES4Ed+ffLfX07Q0mdH5Ti6tq4lqk172g33CJmMAOAjyWz7ec4IZzeVdMoJWrprntkQwGZBmcn0Jj/zy8O6a557nvz39+kkvqtsDewvBAAfWb+zxdF14/KDmlzozoMjCQHeR/H/sGnFIY12eFbAumpn9wi4EwHARzbvcbb179zyzHvtrz9YE+Bdfp/z74nTLYI31zAF4CcEAB/ZXOssABw5gAedpAprAryHOf+eHekwtG+pbTXcE2QyAoBPtHXFtbc56uja8QXuHP4/ENMB3sGw/6E5/c5W13cq4WybELgQAcAnWjpijq91Op+YiQgB7kfx753T72w8Yauty/m9Au5CAPCJlg5nsd6yLBVl+OY//cWaAPdizr9vipM4qKu1kyEAv/DWnR09aut0lupzAlLAW/dGSawJcCPm/PsuFLAUdvjFTWa0EO5CAPAJy+H/tJefBRgJcA+e/Psv4XBXPyuJUwXhLgQAn8gNO5sT7Ijbinl4d9BI0NKdc82GgEV3rScEGLRsVY2uMPjkf0xZWPfM8+aTf7fOJL63edneWfODQyMA+EQyX+q6Tm8fE8p0QOZi2N+Zui7nY3e5BADfIAD4REFOyPHQ3pYWbwcAibcDMhGr/Z3b3OxsHj8rYCnP4Wgh3IcA4BM5oYAqCkOOrt3Q5I9FQYSAzEHxT86GZmehfXhpRAGqgm/wX+0jo8udHef7Ul2X4Z5kLhYGph8L/pL3Ym2no+vGVLjjyG+YQQDwkbHlzk4Je762S4buxa7AmoD0Yc4/eXHb1osOQ/toh/cIuBMBwEemjShwdF1NR1wv+GgUQGIkIB148jdjRW2X9jrczGf6iHzDvUEmIwD4yDETihxf+/A2ZwcJuRkjAQOHJ39zHt7m/ES/Y8aXGOwJMh0BwEemDClQca6zQ0IerurQHofbCbsZIwGpx5O/Obvb43qsylkAqCjM1tgKpgD8hADgI4GAdMwEZwm/K2Hrdxv9eVQoIwGpw5O/Wb9+t1VRh7/K+ZOKzXYGGY8A4DOfml3h+NrfvNuqzT7YE+BgGAkwjyd/s7a2xnXHJudTdZ+aM9hgb+AGBACfOXVGmeNtgbsStm54s8lwj9yDkQBzePI3y7ZtLV7dpC6Hv8/CnCydNLXUcK+Q6QgAPpMbDuqUGWWOr//7rg4t2ey/BYHd2CwoeWzyY97vN7fr6d0djq8/bWa5wlmUA7/hf9yHPn/csKSuv+HNJq2u99drgfsjBDhH8TfvtfqobkpyZO7zxyd3T4A7EQB86OjxxTpirPNXAjvjti56vkEbHe437gWsCeg/5vzN29IS06XP1zse+pekeZNKNGtUocFewS0IAD51+cdGJnV9fWdCF6yoV1WbPxcFSqwJ6A/m/M2raovrvOfqVedw059uVyR5L4B7EQB86tTDyzVteHK7fu1oi+vcZ/b6OgQwHdA7hv3Nq3r/u7cjye/e7NFFOpHFf75FAPCpQEC65fyJjo8I7lbVFtc5y/dqWyvTAUwHfBTD/uZVt8e18NnkR98ClvS98yckfQ+AexEAfOzIccU65wjn+wJ0q26P69xn6n0dAiJBS3fONRsCFt213tUhYNmqGl1hcNj/mLKw7pnn72F/k9+1zx47lLl/nyMA+Nx3Pz3e8fbA+zP1VOJmrAn4F+b8zTM52jaoIKTrzhproFdwMwKAz1UWZesXl04zMgzIdADTARLD/qlgMmBblqWfXDRF5QVmPqNwLwIA9LHpg3SpofeAmQ7w93QAw/7mmf5Offmk4frE4c43A4N3EAAgSfrPT483Nh/IdIA/pwMY9jfP9KjaEWOL9O2zxhlpC+5HAIAkKTsU0D1fnaFxg3ONtMd0gL+mAxj2N890kB5Tnqs7vnI4W/7iA3wS8IHS/JDu++pMDS4yU7CYDvDHdADD/uaZ/u4MLgrrga/NUFl+yEh78AYCAD5kZFlE9145QyV5Zm4UTAd4ezqAYX/zTI+eleSFdN+VMzViUI6R9uAdBAB8xLRhBVp69UyVGnpaYDrAm9MBDPubZzowF+WGdP9VMzR1WHK7fsKbCAA4qGnDCvTgInMhgOkAb00HMOxvnunvSFFuSA9+bYYOH8lmPzg4AgB6RAgwzwshgOJvHsUf6UAAwCERAsxzcwig+JtH8Ue6EADQK0KAeW4MARR/8yj+SCcCAPqEEGCem0IAxd88ij/SjQCAPiMEmOeGEEDxN4/ij0xAAEC/EALMy+QQQPE3j+KPTEEAQL8RAszLxBBA8TeP4o9MQgCAI4QA8zIpBFD8zaP4I9MQAOAYIcC8TAgBFH/zKP7IRAQAJIUQYF46QwDF3zyKPzIVAQBJIwSYl44QQPE3j+KPTEYAgBGEAPMGMgRQ/M2j+CPTEQBgDCHAvIEIARR/8yj+cAMCAIwiBJiXyhBA8TeP4g+3IADAuO4QUJJnLgSYPCPdjSJBS0vmlmp+udkQcLnB4j+/PKz75vu7+Fe1xXXO8r3Gin9JXkgPXzOT4o+UIAAgJaYNK9DSq81eDufgAAAdyElEQVSNBJi+sbpRTtDS3fPMjgTEDT75L5lbqpygf4u/6aBalBvS/VfN0LRhBUbaAw5EAEDKMB1gnunpABMY9mfYH+5EAEBKEQLMy6QQQPGn+MO9CABIOUKAeZkQAij+FH+4GwEAA4IQYF46QwDFn+IP9yMAYMAQAsxLRwig+FP84Q0EAAwoQoB5AxkCKP4Uf3gHAQADjhBg3kCEAIo/xR/eQgBAWhACzEtlCKD4U/zhPQQApA0hwLxUhACKP8Uf3kQAQFoRAswzGQIo/hR/eBcBAGlHCDDPRAig+FP84W0EAGQEQoB5yYQAij/FH95HAEDGIASY5yQEUPwp/vAHAgAyyrRhBXrwa7M4Stig7qOETx8a6fXvnjEswpG+qTjS9+pZFH9kHAIAMs604flaushcCKhqi+vcZ/b6OgTkBC397phi/c8RRRqbn/WRPx+XH9TPjyzWb48u9vWRvqY/KyV5IS1dNEvThucbaQ8w6aN3AiADdIeAhf/zuhpao0m3131jf/iEQRqRGzTQQ/exLEvnjcrVeaNytaUlpi0t7xW5sQVZGp3nz9/J/ij+8BtGAJCxpg3P19Krza0JMD2062Zj8rN0UmW2TqrMpvjL/FRRUW5I9181g+KPjEYAQEZjYSBSLRUL/h64aiZz/sh4BABkPEIAUiVVxX/GqAIj7QGpRACAKxACYBrFH35HAIBrEAJgCsUfIADAZQgBSBbFH3gPAQCuQwiAUxR/4F8IAHAlQgD6i+IPfBgBAK5FCEBfUfyBjyIAwNUIAegNxR84OAIAXI8QgJ5Q/IGeEQDgCYQAHIjiDxwaAQCeQQhAN4o/0DsCADyFEACKP9A3BAB4DiHAvyj+QN8RAOBJhAD/ofgD/UMAgGcRAvyD4g/0HwEAnkYI8D6KP+AMAQCeRwjwLoo/4BwBAL5ACPAeij+QHAIAfIMQ4B0UfyB5BAD4CiHA/Sj+gBkEAPgOIcC9KP6AOQQA+BIhwH0o/oBZBAD4FiHAPSj+gHkEAPgaISDzUfyB1CAAwPcIAZmL4g+kDgEAECEgE1H8gdQiAADvIwRkDoo/kHoEAGA/04YV6MGvzVJJnrkQsPDZeu1oixtpzw92tMV1zvK9xop/SV5ID189i+IPHIAAABxg2vB8LV1kLgRUtcV18cp6tcRsI+15WXPM1kUr6lVlKDCV5IW0dNEsTRueb6Q9wEsIAMBBTBuer6VXm5sO2NAU00/WNxtpy8tuXdesd5rNDfv/4cqZFH+gBwQAoAempwOWbGpTe5xRgJ60xW3dtbnNSFsM+wO9IwAAh2ByOqA9buvF2k4DvfKmF2u71GEgIDHsD/QNAQDoRXcIKMzJSrqtHe0JAz3yJhMLJQtzsij+QB8RAIA+2FzTprbO5AtUyDLQGY8KBZP/5bR2xvX2zhYDvQG8jwAA9OKxV/fo8tvXKpZIfnh6XEHyowheNS4vmHQb8YStRXet12Ov7jHQI8DbCADAITz26h5duWSd4gaKf0UkqNmlZhYUetGcQSFVRMyEgCuXrCMEAL0gAAA9MFn8JenqyXkKWswB9CRoWVo02czcPSEA6B0BADgI08X/lCERfX5snpG2vOzSsbk6ZUjESFuEAODQCADAAZatqtFVBov/MWVh/e9RxQrw8N+rgCX9+uhiHV8RNtJedwh4+OXdRtoDvIQAAOxn2aoaXWFowZ/0XvG/Z16p8rKo/n0VCVq6c26p0RCw6K71hADgAAQA4H0U/8xBCABSjwAAiOKfiQgBQGoRAOB7FP/MRQgAUocAAF+j+Gc+QgCQGgQA+BbF3z0IAYB5BAD4EsXffQgBgFkEAPgOxd+9CAGAOQQA+ArF3/0IAYAZBAD4BsXfOwgBQPIIAPAFir/3EAKA5BAA4HkUf+8iBADOEQDgaRR/7yMEAM4QAOBZFH//IAQA/UcAgCdR/P2HEAD0DwEAnkPx9y9CANB3BAB4CsUfhACgbwgA8AyKP7oRAoDeEQDgCRR/HIgQABwaAQCuR/FHTwgBQM8IAHA1ij96QwgADo4AANei+KOvCAHARxEA4EoUf/QXIQD4MAIAXIfiD6cIAcC/EADgKhR/JIsQALyHAADXoPjDFEIAQACAS1D8YRohAH5HAEDGo/gjVQgB8DMCADIaxR+pRgiAX2WluwNATx57dY+uXLJOcUPFf355WHfNK1VO0N/Fv7Yzoad3d2h7a1ySNCo/SycOzlZZtn+fByJBS0vmluqSlfVaUduVdHvdISAYsHT2EYMN9BAwjwCAjETxN68pauvGt5r0wNY2xQ74tWZZ0gWjc/WdwwpUGPJnEMgJWrprntkQcOWSdZJECEBG8uc3HRmN4m9eVVtcp/+zVvdu+Wjxl6SYLd29pU1nPL1XVW3xge9ghugOAfPLzU0HXLlknR57dY+R9gCTCADIKMtW1egqg8X/mLKwlsz1d/Gvbo9r4bP12tTSe2Hf2BzTOcv3altrbAB6lplygpbunmd2TcCVS9axJgAZhwCAjMGCP/Oq2+M695n6fhV0J9d4DQsD4QcEAGQEir95yRRyQgAhAN5HAEDaUfzNM1HACQGEAHgbAQBpRfE3z2ThJgQQAuBdBACkDcXfvFQUbEIAIQDeRABAWlD8zUtloSYEEALgPQQADDiKv3kDUaAJAYQAeAsBAAOK4m/eQBZmQgAhAN5BAMCAofibl46CTAggBMAbCAAYEBR/89JZiAkBhAC4HwEAKUfxNy8TCnAm9CHdCAFwMwIAUorib14mFd5M6ku6EALgVgQApAzF37xMLLiZ2KeBRgiAGxEAkBKPvbpHlxss/vPLw7pvvr+Lf1Vb3OhJfSV5IZXkhYy01X3ioJ+PEo4ELS2Za/Yo4UV3recoYaQMAQDGcaSveaYLbFFuSPdfNUNLr56p0nwzIcB0QHEjjhKGmxAAYBTD/uaZHmIvyg3pwa/N0OEjCzVtWIEeXGQuBDAdwHQA3IMAAGMo/ualsvh3IwSYRwiAGxAAYATF37yBKP7dCAHmEQKQ6QgASBrF37yBLP7dCAHmEQKQyQgASArF37x0FP9uhADzCAHIVAQAOEbxNy+dxb8bIcA8QgAyEQEAjlD8zcuE4t+NEGAeIQCZhgCAfqP4m5dJxb8bIcA8QgAyCQEA/ULxNy8Ti383QoB5hABkCgIA+ozib14mF/9uhADzCAHIBAQA9AnF3zw3FP9uhADzCAFINwIAekXxN89Nxb8bIcA8QgDSiQCAQ6L4m+fG4t+NEGAeIQDpQgBAjyj+5rm5+HcjBJhHCEA6EABwUBR/87xQ/LsRAswjBGCgEQDwEctW1ehyg8V/fnlY9833d/GvaovrnOV7jRW4kryQHr5mZlqKf7fuEFCSZy4ELHy2XlVtcSPtuVEkaGnJ3FLNLzcbApatqjHSHryFAIAPWbmhQVcuWae4wSf/JXNLlRP0b/E3XdiKckO6/6oZmjaswEh7yZg2rEBLrzY3EmA6KLlRTtDS3fPMjgR89Y51emZ9vZH24B0EAHxgfXWrvvCbt9QVSxhpj2F/bw3794TpAPNMTwdE4wl9+bdvaU1Vs5H24A0EAEiS9jR26YJfvq6mdjM3XYb9vTns3xOmA8wzPR3Q3BHXxb96QzVNnUbag/sRAKBEQlp01zrtaewy0h7D/t4e9u8J0wHmmZ4O2NPYpSvuMDfFB3cjAEC//Ns2Y/ODDPv7Y9i/J0wHmGd6OmDlhgbd9tR2I23B3QgAPremqlm3PrnFSFsM+/tr2L8nTAeYZ3o64EfLtrAeAAQAP7NtW99d+q6i8eQX/THs789h/54wHWCeyemAaDyhxQ+8I9tmKsDPCAA+9sgre/Tixn1Jt8Owv7+H/XvCdIB5JqcDXtncqEdfZX8APyMA+FRHV1zfe3RT0u0w7M+w/6EwHWCeyemAmx7ZqI4u//4u/Y4A4FMPvLhbuxuTex1oXnlYd83z97B/VVtc5z6z11hBKskLaenVM1057N+T7ukAUyHA9O/cjXKClu6aV6q5SYaA3Y2duv9Ftgr2KwKAD8UTtv7vH1VJtTG1KKTbj/V38WfOv+9YE2BezvvTAYcVJ/c7ve2pbca2/Ya7EAB86M9v1GpLbZvj6ysjQd1/XKkKQ/4t/gz79x/TAeblZ1m6Z16JBkec38q313XoT6trDfYKbkEA8KF7V+50fG1A0s+PLFJ5tn8/Ojz5O8dIgHkVkaBuO7pEQct5IL9v5S6DPYJb+Pcu7lN7m6Na8XaD4+u/NCFPx1VkG+yRu/DknzxGAsw7tiysL4zLdXz9yg31qmuJGuwR3IAA4DOPr9rjeL6vPDuga6fkG+6Re/Dkbw4jAeZ9Y1qB46mAWMLWExwZ7DsEAJ/5yxvO5/qumZKvwpA/PzI8+ZvHSIBZBVmWrprkPKD/eTUBwG/8eTf3qWg8oVc3Nzm6tiw7oAtGOx9idDOe/FOHkQCzLhyTq0EO1+e8sqlR0ThvA/gJAcBH3tzeojaHm35cOCZXER++8seTf+oxEmBOTtByHNTbowm9sc3ZAwLciQDgIy8lse3vOSNyDPbEHdjkZ+CwWZA554yIOL72pU3Jbw0O9yAA+MiGXa2OrhuXH9TkwizDvclsFP+BRwgwY2pRSGPzg46ufXun8/1B4D4EAB/ZUuPsyz233F+v/THnnz6sCTDjWIff2a1JbBAG9yEA+MjW2nZH1x1ZZuYMcjdgzj/9WBOQvCMHOfvObnb4kAB3IgD4RGc0odrmLkfXji/wx/A/w/6Zg+mA5Dj9zta3RNUeTRjuDTIVAcAnWjud3/hG5zmbT3QTin/mIQQ4l8x3trmdHQH9ggDgE05f/7MsS0Ue3/yHOf/MxZoAZ4rDzl/ZTeZhAe7i7Ts7PuA0AOQEpICHX/9nzj/zsSag/4KW5fio7rZOpgD8ggDgE1kOq7iXbwU8+bsHIwH95/TMj6CXEz8+hADgE7nZzuYEO+K2Yh7cHbS6Pa5zn6k3VgCKckN68GszePJPoe6RAFMhwPRnIJNEE7aiDr+3+RHvr/nBewgAPpHvMABIUp3H5gQZ9ncvpgP6pi6JYfy8JO4VcBcCgE/khrMUCjr7797S4p2bI6v93Y+3A3q32eF3NhiwGAHwEQKATwQC0sgyZ3uEb2jyxhApxd87CAGH5vQ7O6w02/GDAtyH/2kfGVvh7JSwl+qcbSCUSVjw5z0sDOzZi3Wdjq4bU55nuCfIZAQAHxlT4exEv+dru+RwQXFGYM7fu1gT8FFx29YLtc5C+5hy5ycJwn0IAD4yw2HBqumI6wWXjgLw5O99jAR82MraqONFgDNG8bn2EwKAjxw7vsjxtQ9vc98hITz5+wcjAf/yyHbn39VjJpQY7AkyHQHAR4aURDSqzNk0wMNVHdrT4Z5tgXjy9x9GAqTazoQe29Hh6NohxRGNdnh/gDsRAHxm/mRnCb8rYet3G1sN9yY1ePL3L7+PBPz6nRZ1xp0t2DnO4b0B7kUA8Jmz5gx2fO1v3m11/H7xQOHJH34dCdjaGtfvNzkf/j9rToXB3sANCAA+M3dCsSqLsh1d25WwdcObTYZ7ZA5P/ujmt5EA27b1ndVNjp/+S/NDjAD4EAHAZ4IBS2ce4Tzp/31Xh5ZszrwFgWzygwP5abOgOza36x+7nc39S9InZ1WwAZAP8T/uQ58/bnhSJ37d8GaTVtdnzmuBFH/0xA8hYFV9l/4riZE5y7J02QnDDfYIbkEA8KGxFTk6bUa54+s747Yuer5BG5vTPyfKnD964+U1AVtaYvr88w3qSmKnro8fNkiTh7IDoB8RAHzqyk+MSur6+s6EPvtcvTalcVHgxuaYzmbOH32QijUBn3k2/Z//hc/WJ3XynyR99ePJ3QvgXgQAn5oxqkCnHOZ8FEB67yZ45vI6vVYfNdSrvnulPqozl+/VDob90UempwN2tKX/81/dntzn/4Qpg3TUOOcbhMHdCAA+9l8Lxys7lNxHoL4zobOX1+nWdc0Dcl6Abdv67cZWnbu8Tg1dZjYmYtjfP0xPB7j5858VsHTDueMN9QxuRADwsVFlObri4yOTbidmSz9e36Lzn9urd1K4LuDtppg+81y9/uONJkUN3WwZ9vcf09MBbv38f+mkEcz9+xwBwOeuOmW0xlc6Oyb4QCtqu/Sxp+p03eomowuktrbG9c1Vjfr4U7V63uEpZwfDsL9/mZ4OkNz1+R9ZFtHXTx9jpC24FwHA53JCAf36i9OSngroFk3YunNTq+b9tU6XvdCgJ6s7HG1O0hG3tWxHhy57oUHz/1qru7e0KWZwiJXij1SEADd8/kPBgH512XQVRIJmGoRrZaW7A0i/acMK9J+fHq/FD7xjrM24besvOzv0l50dyglamlMa0lFl2ZpQENTYgiwVhSwVhd+7ATV2xbWvy9aWlpjeaY7ppbouraqPqsPhrma9ofijW3cIWPiz1WpoNbeYL5M//986c4zmjGHKCwQAvO+yE4br1c2NeuSVPcbbbo/bWlHbpRUGh++dovjjQKkKAd0y6fN/6oxyXX4yr/3hPUwB4AM/u2SKTpw6KN3dSBlW+6Mnpt8OyESzRxfpfy+bqgB3fbyPjwI+EAoG9Pt/O0xHjPXee8FFuSE9+LUZrPZHj7rfDvBiCJhYmad7r5yh3DDz/vgXAgA+JCcU0J1fOVyzRnmnUFYWZevRa2ZT/NGracMKtHTRLMcnZmaiyUPz9MCimSrOZcYXH0YAwEeU5of00DWzdPK0snR3JWkTKnO17BtzNGUY7zujb6YOy9eyb8wx9npsOs0ZU6hHrpntqUADcwgAOKjccFB3fGW6zjtmSLq74thR44r0+L8foeGlkXR3BS4zvDSix6+doyNdPB32yVkVevjq2UZfc4S3EADQo1AwoP+5ZIp+/vmprpo7tCxLX1owXA9dPZthTzhWkhfSI1+frWvPGKMkTs8ecKFgQN8+e5x+8yVz+3vAm7g7olcLj67UjFEF+srv12h9dWu6u3NIFYXZ+sWlU3X85JJ0dwUekBWw9O9nvPfe/NeWrFNdy8Af/NMfYyty9OsvTtdhI3jTBb0jHqJPJlbm6a/XHakbF07IyB3EsgKWLp4/VE9/5yiKP4w7ceogrbjhGH1pwXAFM3A4IBIO6spPjNLfrj+K4o8+YwQAfRYKBvTlE0foU7Mr9L1HN+nRV3YPyAlovTluUon+6zMTWeiHlCrKDemm8ybq/GOH6NsPvqOXNzWmu0uyLEunzSjTDeeO14hBOenuDlyGAIB+qyzK1i8vnapvfHKMfvfPKt3z/C51dCV3Lnl/WZalj00fpKs+MVJHjise0J8Nf5s+okB/vHaOXt7UqF/+bZueWrNXtj2wSThgSSdPL9O1p4/RjFE88cMZAgAcG1WWo5vOm6grTxmt+1/YqUdf2aMNu1K7RmBIcURnzinXxfOGeeI1LbjXUeOKdNflh2tddYvuXblTy16rUW1zarf7HVkW0TlzKnXR/CE88SNpBAAkbXBRWItOHa1Fp47W2upmLXutVs+/06DV25oVjSeSajtgSZOG5mnehBKdMbtCR40tZitTZJSpw/L1/fMm6sbPTNDKd/bpiVU1emFjgzbubku67YAlTRmWr/mTSvSp2YM1e3SBLCvz1iDAnQgAMGrasIIP9tpv64rr1c1NWrujSZtr2rW1pl3b69vV2BZXc3v0Q+sHCnOylBsOamRZRGMqcjWmPEdThubrqPHFvMoHVwgGLB0/ueSDRai1zV16eWOj1lY3a0tNu7bUtmlHfYcaW2OKHbB4JpwVUFFO1vuf/zyNq8jR1GH5OmZCsQpz+PwjNfhkIWVyw8EP3RAP1NEVV+L9vwd4TXlBWGfMKtcZs8o/8mfRuK22zpgkKS+SpawMfLMA3kcAQNpEKPzwqVDQUlEuO/QhvZhNBQDAhwgAAAD4EAEAAAAfIgAAAOBDBAAAAHyIAAAAgA8RAAAA8CECAAAAPkQAAADAhwgAAAD4kCcCgGUFHB/GPdDneAMA0i+Ze38yNSeTeCIA2EHb8bmbHTFP/D8CAPqhrSuJo8oTgVZzPUkfTwQAKxpodnptS0fMZFcAAC7QnMS93wpEHdecTOKJABAMZDn+z9hZ32myKwAAF6hO4t4fjqnRYFfSxhMBYGfzzkZJjuLcxj2eGMkBAPTDJuf3/uj2IZuaTPYlXTwRAPTab6KStjq59I1tnhjJAQD0w+tbHdfwTVq6NG6yL+nijQDwng1OLlrxTr3pfgAAMtyKdxocXWc5rDWZyEsB4G1HF+1s05Zaxy8RAABcZuPuNm3c7ey+b9sWASDTWJb1gpPrbNvWQy/tMd0dAECGeujl3Y6vDVgJR7UmE3kmAAQCieWy5ejFzntW7FRHlyemdAAAh9AZTej+F3Y6vTyeFbOfMdmfdPJMAKj+xy17bUtvOrm2pqlT97/oPBECANzhrhXV2tPY5fTy17ev+IGzxQMZyDMBQJICtvUnp9f++InNamyLmuwOACCDNLRG9dM/bXXeQBI1JhN5KgBYVuJup9fWtUR102ObTHYHAJBBbnxkkxpaHT/o2XHbusdkf9LNUwFg5/Jb3pb0itPr712xU4++woJAAPCax1fVJDP3L0kv1j77vXdN9ScTeCoASJIl6/Zkrr/u/g1aV91iqjsAgDRbU9Wsa+9x9Kb4ByzbvsNQdzKG5wJAtkJLJMvxir6m9pgu/OVqba1rN9YnAEB6bKlt00X/+2ZyB7/Z2pltZTueYs5UwXR3wLR9W5fH8kcdF5Cljztto7UzrmWv1eq4SSWqKMo22T0AwAB5e2erzvv5au1pTO7QN0v6zx3P3LTCULcyhudGACQpboVvk23XJNNGTVOnPv3TVVq2KqlmAABp8Nire/SpW1/T7n3Jnvhq7bYKw/9npFMZxnMjAJLUtnV5V/6Y4+sknZ1MO10xW8tW1Wj3vk4dNb5YkZAn8xIAeEZDa1SLH3hXP1y2WV0xR3vDfYglXb7rbze9ZqBrGcdKdwdSyKpcsPhZSfNNNDaoIKRrThuji+YOUSTsydwEAK7V0RXX3St36qd/2prMq34Hemb38ptPlGSbajCTeDkAaPDx3z3MCsRfkWRsIr+8IKyL5g/VwqMrNbYi11SzAAAHNu5u00Mv79Z9K3eqttnxDn8H06GgPWf3P25ZZ7LRTOLpACBJlQsWf1XSL1PR9sTKPM2fXKKZowo1bnCOhpXkKD8SVF42IwQAYFJrZ1wtHXFVN7Rr4+42rd7WrOc21Ds+1a83luyv7Fp+iyfn/rt5PgBI0pATFt9rW7ow3f0AALiArQd3P3Pz+enuRqr5YlVbRyh+hWxnBwUBAPzDllbHYrEvpbsfA8EXAaDhqR82xsKx0yRtSXdfAAAZa0s8rtPrVv6oOd0dGQi+CACSVPf3H+0MBu1Tk90fAADgSXviicApdc/dvCvdHRkovgkAklT9j1vesUP2sZI2prsvAICMsTUYtI/32mE/vfHFIsADlS/4RmVAoT9b0sx09wUAkFZrsgLWqTv++f3qdHdkoPlqBKBb7fL/3h3NCZ8gWw+muy8AgLS5PxaNzfVj8Zd8OgKwv8oTF1+ihG6TJXb1AQB/6LCl6/Ysv/l/0t2RdPL9jjUtW597I3/sgj/KtqfL0qh09wcAkFLPKGiftefpW55Id0fSzfcjAPuxKk9c/DnZ+pGkwenuDADAJGu3Jfsbu5bffK88urd/f/l+BGB/LVufeyNv4tG3KR6skXSYJRWmu08AgCTYdo0s66ZAQfgir57q5xQjAD0YveCGSKcVvcS27cskHZPu/gAA+uUFy7KW5EWa7tz45190prszmYgA0AfDTr5+YjxhXSxbp0maJUZOACDTxCW9Ltv6U9y27vHbO/1OEAD6aeT860piWdYJCTtwrGXZk2xpsqSxkkLp7hsA+ERU0mZLetu2rQ0BK/FCVsx+ZvuKHzSku2NuQgAwYeHC4Mhd4wo7A1nFdihREEwkCAMAYFA8EIha0UBzdiK2b/uQTU1aujSe7j4BAAAAAAAAAAAAAAAAAAAAAAAAAAAAAAAAAAAAAAAAAAAAAAAAAAAAAAAAAAAAAAAAAAAAAAAAAAAAAAAAAAAAAAAAAAAAAAAAAAAAAAAAAAAAAAAAAAAAAAAAAAAAAAAAAAAAAAAAAAAAAAAAAAAAAAAAAAAAAAAAAAAAAAAAAAAAAAAAAAAAAAAAAAAAAAAAAHzi/wOwNVDLx5U9eQAAAABJRU5ErkJggg==;" vertex="1" parent="1">
          <mxGeometry x="463" y="-154.5" width="56" height="56" as="geometry" />
        </mxCell>
      </root>
    </mxGraphModel>
  </diagram>
</mxfile>
